<svg viewBox="0 0 44 44" fill="none" xmlns="http://www.w3.org/2000/svg" width="44" height="44" aria-hidden="true">
  <path d="M5 20.5C9.5 16.8 13.1 16.8 17.2 20.5C21.3 24.2 24.7 24.2 28.8 20.5C32.9 16.8 36.5 16.8 39 20.5" stroke="#D0AE55" stroke-width="1.2" stroke-linecap="round" stroke-linejoin="round"/>
  <path d="M5 24.5C9.5 19 13.1 19 17.2 24.5C21.3 30 24.7 30 28.8 24.5C32.9 19 36.5 19 39 24.5" stroke="#F4EEE2" stroke-width="1.8" stroke-linecap="round" stroke-linejoin="round"/>
  <path d="M5 28.5C9.5 32.2 13.1 32.2 17.2 28.5C21.3 24.8 24.7 24.8 28.8 28.5C32.9 32.2 36.5 32.2 39 28.5" stroke="#3A5680" stroke-width="1.1" stroke-linecap="round" stroke-linejoin="round" opacity="0.9"/>
  <circle cx="17.2" cy="24.5" r="1.15" fill="#D0AE55"/>
  <circle cx="28.8" cy="24.5" r="1.15" fill="#D0AE55"/>
</svg>
